<?xml version="1.0" encoding="UTF-8" standalone="no"?><!DOCTYPE svg PUBLIC "-//W3C//DTD SVG 1.1//EN" "http://www.w3.org/Graphics/SVG/1.1/DTD/svg11.dtd"><!-- Generated by graphviz version 2.40.1 (20161225.0304)
 --><!-- Title: %0 Pages: 1 --><svg xmlns="http://www.w3.org/2000/svg" xmlns:xlink="http://www.w3.org/1999/xlink" width="1812pt" height="476pt" viewBox="0.00 0.00 1812.41 476.00">
<g id="graph0" class="graph" transform="scale(1 1) rotate(0) translate(4 472)">
<title>%0</title>
<polygon fill="#ffffff" stroke="transparent" points="-4,4 -4,-472 1808.4081,-472 1808.4081,4 -4,4"/>
<!-- AA -->
<g id="node1" class="node">
<title>AA</title>
<ellipse fill="none" stroke="#000000" cx="942" cy="-306" rx="27" ry="18"/>
<text text-anchor="middle" x="942" y="-301.8" font-family="Times,serif" font-size="14.00" fill="#000000">AA</text>
</g>
<!-- RZ -->
<g id="node2" class="node">
<title>RZ</title>
<ellipse fill="none" stroke="#000000" cx="913" cy="-162" rx="27" ry="18"/>
<text text-anchor="middle" x="913" y="-157.8" font-family="Times,serif" font-size="14.00" fill="#000000">RZ</text>
</g>
<!-- AA&#45;&#45;RZ -->
<g id="edge1" class="edge">
<title>AA--RZ</title>
<path fill="none" stroke="#000000" d="M938.3858,-288.0535C932.8286,-260.4592 922.2443,-207.9026 916.6598,-180.1727"/>
</g>
<!-- QQ -->
<g id="node3" class="node">
<title>QQ</title>
<ellipse fill="none" stroke="#000000" cx="887" cy="-234" rx="27" ry="18"/>
<text text-anchor="middle" x="887" y="-229.8" font-family="Times,serif" font-size="14.00" fill="#000000">QQ</text>
</g>
<!-- AA&#45;&#45;QQ -->
<g id="edge2" class="edge">
<title>AA--QQ</title>
<path fill="none" stroke="#000000" d="M929.5196,-289.6621C920.5186,-277.8788 908.4207,-262.0416 899.431,-250.2733"/>
</g>
<!-- FH -->
<g id="node4" class="node">
<title>FH</title>
<ellipse fill="none" stroke="#000000" cx="1129" cy="-162" rx="27" ry="18"/>
<text text-anchor="middle" x="1129" y="-157.8" font-family="Times,serif" font-size="14.00" fill="#000000">FH</text>
</g>
<!-- AA&#45;&#45;FH -->
<g id="edge3" class="edge">
<title>AA--FH</title>
<path fill="none" stroke="#000000" d="M963.4478,-295.0374C982.4485,-284.9216 1010.5727,-268.9422 1033,-252 1051.5631,-237.9769 1054.0418,-231.9266 1071,-216 1085.2407,-202.6256 1101.5285,-187.4738 1113.2108,-176.6314"/>
</g>
<!-- IM -->
<g id="node5" class="node">
<title>IM</title>
<ellipse fill="none" stroke="#000000" cx="997" cy="-234" rx="27" ry="18"/>
<text text-anchor="middle" x="997" y="-229.8" font-family="Times,serif" font-size="14.00" fill="#000000">IM</text>
</g>
<!-- AA&#45;&#45;IM -->
<g id="edge4" class="edge">
<title>AA--IM</title>
<path fill="none" stroke="#000000" d="M954.4804,-289.6621C963.4814,-277.8788 975.5793,-262.0416 984.569,-250.2733"/>
</g>
<!-- VJ -->
<g id="node6" class="node">
<title>VJ</title>
<ellipse fill="none" stroke="#000000" cx="777" cy="-234" rx="27" ry="18"/>
<text text-anchor="middle" x="777" y="-229.8" font-family="Times,serif" font-size="14.00" fill="#000000">VJ</text>
</g>
<!-- AA&#45;&#45;VJ -->
<g id="edge5" class="edge">
<title>AA--VJ</title>
<path fill="none" stroke="#000000" d="M919.4034,-296.1397C887.9827,-282.4288 831.4101,-257.7426 799.8532,-243.9723"/>
</g>
<!-- UZ (5) -->
<g id="node34" class="node">
<title>UZ (5)</title>
<ellipse fill="none" stroke="#000000" cx="913" cy="-90" rx="37.6593" ry="18"/>
<text text-anchor="middle" x="913" y="-85.8" font-family="Times,serif" font-size="14.00" fill="#000000">UZ (5)</text>
</g>
<!-- RZ&#45;&#45;UZ (5) -->
<g id="edge36" class="edge">
<title>RZ--UZ (5)</title>
<path fill="none" stroke="#000000" d="M913,-143.8314C913,-133 913,-119.2876 913,-108.4133"/>
</g>
<!-- FM -->
<g id="node51" class="node">
<title>FM</title>
<ellipse fill="none" stroke="#000000" cx="985" cy="-162" rx="27" ry="18"/>
<text text-anchor="middle" x="985" y="-157.8" font-family="Times,serif" font-size="14.00" fill="#000000">FM</text>
</g>
<!-- IM&#45;&#45;FM -->
<g id="edge53" class="edge">
<title>IM--FM</title>
<path fill="none" stroke="#000000" d="M993.9719,-215.8314C992.1389,-204.8334 989.8108,-190.865 987.9856,-179.9134"/>
</g>
<!-- FE -->
<g id="node7" class="node">
<title>FE</title>
<ellipse fill="none" stroke="#000000" cx="719" cy="-450" rx="27" ry="18"/>
<text text-anchor="middle" x="719" y="-445.8" font-family="Times,serif" font-size="14.00" fill="#000000">FE</text>
</g>
<!-- TM -->
<g id="node8" class="node">
<title>TM</title>
<ellipse fill="none" stroke="#000000" cx="753" cy="-378" rx="27" ry="18"/>
<text text-anchor="middle" x="753" y="-373.8" font-family="Times,serif" font-size="14.00" fill="#000000">TM</text>
</g>
<!-- FE&#45;&#45;TM -->
<g id="edge6" class="edge">
<title>FE--TM</title>
<path fill="none" stroke="#000000" d="M727.2305,-432.5708C732.5761,-421.2506 739.5148,-406.5568 744.8453,-395.2687"/>
</g>
<!-- TR (7) -->
<g id="node9" class="node">
<title>TR (7)</title>
<ellipse fill="none" stroke="#000000" cx="551" cy="-234" rx="37.097" ry="18"/>
<text text-anchor="middle" x="551" y="-229.8" font-family="Times,serif" font-size="14.00" fill="#000000">TR (7)</text>
</g>
<!-- FE&#45;&#45;TR (7) -->
<g id="edge7" class="edge">
<title>FE--TR (7)</title>
<path fill="none" stroke="#000000" d="M713.0086,-432.4229C701.5121,-400.6662 673.8231,-332.8673 633,-288 617.284,-270.7271 594.9049,-256.4764 577.4952,-246.96"/>
</g>
<!-- JH (4) -->
<g id="node20" class="node">
<title>JH (4)</title>
<ellipse fill="none" stroke="#000000" cx="787" cy="-306" rx="35.3716" ry="18"/>
<text text-anchor="middle" x="787" y="-301.8" font-family="Times,serif" font-size="14.00" fill="#000000">JH (4)</text>
</g>
<!-- TM&#45;&#45;JH (4) -->
<g id="edge15" class="edge">
<title>TM--JH (4)</title>
<path fill="none" stroke="#000000" d="M761.2305,-360.5708C766.5368,-349.3339 773.4129,-334.7727 778.7275,-323.5182"/>
</g>
<!-- QZ (19) -->
<g id="node10" class="node">
<title>QZ (19)</title>
<ellipse fill="none" stroke="#000000" cx="1616" cy="-378" rx="42.3163" ry="18"/>
<text text-anchor="middle" x="1616" y="-373.8" font-family="Times,serif" font-size="14.00" fill="#000000">QZ (19)</text>
</g>
<!-- HH -->
<g id="node11" class="node">
<title>HH</title>
<ellipse fill="none" stroke="#000000" cx="1652" cy="-306" rx="27" ry="18"/>
<text text-anchor="middle" x="1652" y="-301.8" font-family="Times,serif" font-size="14.00" fill="#000000">HH</text>
</g>
<!-- QZ (19)&#45;&#45;HH -->
<g id="edge8" class="edge">
<title>QZ (19)--HH</title>
<path fill="none" stroke="#000000" d="M1624.8989,-360.2022C1630.5623,-348.8753 1637.857,-334.2859 1643.4514,-323.0972"/>
</g>
<!-- OY -->
<g id="node12" class="node">
<title>OY</title>
<ellipse fill="none" stroke="#000000" cx="1580" cy="-306" rx="27" ry="18"/>
<text text-anchor="middle" x="1580" y="-301.8" font-family="Times,serif" font-size="14.00" fill="#000000">OY</text>
</g>
<!-- QZ (19)&#45;&#45;OY -->
<g id="edge9" class="edge">
<title>QZ (19)--OY</title>
<path fill="none" stroke="#000000" d="M1607.1011,-360.2022C1601.4377,-348.8753 1594.143,-334.2859 1588.5486,-323.0972"/>
</g>
<!-- WN -->
<g id="node16" class="node">
<title>WN</title>
<ellipse fill="none" stroke="#000000" cx="1662" cy="-234" rx="27.2467" ry="18"/>
<text text-anchor="middle" x="1662" y="-229.8" font-family="Times,serif" font-size="14.00" fill="#000000">WN</text>
</g>
<!-- HH&#45;&#45;WN -->
<g id="edge35" class="edge">
<title>HH--WN</title>
<path fill="none" stroke="#000000" d="M1654.5234,-287.8314C1656.0278,-277 1657.9323,-263.2876 1659.4426,-252.4133"/>
</g>
<!-- PZ -->
<g id="node50" class="node">
<title>PZ</title>
<ellipse fill="none" stroke="#000000" cx="1580" cy="-234" rx="27" ry="18"/>
<text text-anchor="middle" x="1580" y="-229.8" font-family="Times,serif" font-size="14.00" fill="#000000">PZ</text>
</g>
<!-- OY&#45;&#45;PZ -->
<g id="edge52" class="edge">
<title>OY--PZ</title>
<path fill="none" stroke="#000000" d="M1580,-287.8314C1580,-277 1580,-263.2876 1580,-252.4133"/>
</g>
<!-- TU (17) -->
<g id="node13" class="node">
<title>TU (17)</title>
<ellipse fill="none" stroke="#000000" cx="1762" cy="-378" rx="42.3163" ry="18"/>
<text text-anchor="middle" x="1762" y="-373.8" font-family="Times,serif" font-size="14.00" fill="#000000">TU (17)</text>
</g>
<!-- NJ -->
<g id="node14" class="node">
<title>NJ</title>
<ellipse fill="none" stroke="#000000" cx="1742" cy="-162" rx="27" ry="18"/>
<text text-anchor="middle" x="1742" y="-157.8" font-family="Times,serif" font-size="14.00" fill="#000000">NJ</text>
</g>
<!-- TU (17)&#45;&#45;NJ -->
<g id="edge10" class="edge">
<title>TU (17)--NJ</title>
<path fill="none" stroke="#000000" d="M1777.2391,-360.879C1785.1007,-350.8814 1793.886,-337.5877 1798,-324 1802.6365,-308.6865 1798.9942,-303.9691 1798,-288 1795.9961,-255.8133 1802.1581,-245.4426 1789,-216 1782.1033,-200.568 1769.2697,-186.2923 1758.7536,-176.2996"/>
</g>
<!-- IN -->
<g id="node15" class="node">
<title>IN</title>
<ellipse fill="none" stroke="#000000" cx="1762" cy="-306" rx="27" ry="18"/>
<text text-anchor="middle" x="1762" y="-301.8" font-family="Times,serif" font-size="14.00" fill="#000000">IN</text>
</g>
<!-- TU (17)&#45;&#45;IN -->
<g id="edge11" class="edge">
<title>TU (17)--IN</title>
<path fill="none" stroke="#000000" d="M1762,-359.8314C1762,-349 1762,-335.2876 1762,-324.4133"/>
</g>
<!-- TU (17)&#45;&#45;WN -->
<g id="edge12" class="edge">
<title>TU (17)--WN</title>
<path fill="none" stroke="#000000" d="M1749.9377,-360.6302C1730.5094,-332.6536 1692.5424,-277.9811 1673.4873,-250.5417"/>
</g>
<!-- NJ&#45;&#45;UZ (5) -->
<g id="edge33" class="edge">
<title>NJ--UZ (5)</title>
<path fill="none" stroke="#000000" d="M1715.865,-157.0637C1693.6345,-153.0236 1660.823,-147.434 1632,-144 1372.2153,-113.0492 1057.383,-96.6432 950.537,-91.6624"/>
</g>
<!-- TH -->
<g id="node56" class="node">
<title>TH</title>
<ellipse fill="none" stroke="#000000" cx="1753" cy="-234" rx="27" ry="18"/>
<text text-anchor="middle" x="1753" y="-229.8" font-family="Times,serif" font-size="14.00" fill="#000000">TH</text>
</g>
<!-- IN&#45;&#45;TH -->
<g id="edge64" class="edge">
<title>IN--TH</title>
<path fill="none" stroke="#000000" d="M1759.7289,-287.8314C1758.375,-277 1756.6609,-263.2876 1755.3017,-252.4133"/>
</g>
<!-- RG -->
<g id="node17" class="node">
<title>RG</title>
<ellipse fill="none" stroke="#000000" cx="440" cy="-378" rx="27" ry="18"/>
<text text-anchor="middle" x="440" y="-373.8" font-family="Times,serif" font-size="14.00" fill="#000000">RG</text>
</g>
<!-- IK -->
<g id="node18" class="node">
<title>IK</title>
<ellipse fill="none" stroke="#000000" cx="597" cy="-306" rx="27" ry="18"/>
<text text-anchor="middle" x="597" y="-301.8" font-family="Times,serif" font-size="14.00" fill="#000000">IK</text>
</g>
<!-- RG&#45;&#45;IK -->
<g id="edge13" class="edge">
<title>RG--IK</title>
<path fill="none" stroke="#000000" d="M461.595,-366.9263C466.3154,-364.5833 471.3044,-362.1656 476,-360 513.2549,-342.8177 523.7451,-341.1823 561,-324 565.6956,-321.8344 570.6846,-319.4167 575.405,-317.0737"/>
</g>
<!-- SZ (10) -->
<g id="node19" class="node">
<title>SZ (10)</title>
<ellipse fill="none" stroke="#000000" cx="367" cy="-306" rx="40.6109" ry="18"/>
<text text-anchor="middle" x="367" y="-301.8" font-family="Times,serif" font-size="14.00" fill="#000000">SZ (10)</text>
</g>
<!-- RG&#45;&#45;SZ (10) -->
<g id="edge14" class="edge">
<title>RG--SZ (10)</title>
<path fill="none" stroke="#000000" d="M424.8744,-363.0816C412.9304,-351.3012 396.2717,-334.8708 383.8924,-322.661"/>
</g>
<!-- IK&#45;&#45;TR (7) -->
<g id="edge26" class="edge">
<title>IK--TR (7)</title>
<path fill="none" stroke="#000000" d="M586.3311,-289.3008C579.112,-278.0013 569.5918,-263.1002 562.2529,-251.6132"/>
</g>
<!-- JH (4)&#45;&#45;QQ -->
<g id="edge17" class="edge">
<title>JH (4)--QQ</title>
<path fill="none" stroke="#000000" d="M807.7201,-291.0816C825.569,-278.2303 851.1042,-259.845 868.33,-247.4424"/>
</g>
<!-- NW -->
<g id="node21" class="node">
<title>NW</title>
<ellipse fill="none" stroke="#000000" cx="633" cy="-234" rx="27.2467" ry="18"/>
<text text-anchor="middle" x="633" y="-229.8" font-family="Times,serif" font-size="14.00" fill="#000000">NW</text>
</g>
<!-- JH (4)&#45;&#45;NW -->
<g id="edge16" class="edge">
<title>JH (4)--NW</title>
<path fill="none" stroke="#000000" d="M760.1649,-294.0368C736.168,-283.2636 700.0919,-266.8818 669,-252 664.3358,-249.7675 659.3601,-247.3217 654.6426,-244.9724"/>
</g>
<!-- VH -->
<g id="node22" class="node">
<title>VH</title>
<ellipse fill="none" stroke="#000000" cx="1057" cy="-162" rx="27" ry="18"/>
<text text-anchor="middle" x="1057" y="-157.8" font-family="Times,serif" font-size="14.00" fill="#000000">VH</text>
</g>
<!-- JH (4)&#45;&#45;VH -->
<g id="edge18" class="edge">
<title>JH (4)--VH</title>
<path fill="none" stroke="#000000" d="M794.5889,-288.4072C804.4677,-267.7015 823.7484,-233.8804 851,-216 915.5727,-173.6324 948.0918,-205.4761 1021,-180 1026.0134,-178.2482 1031.223,-175.9501 1036.0703,-173.5844"/>
</g>
<!-- AZ -->
<g id="node23" class="node">
<title>AZ</title>
<ellipse fill="none" stroke="#000000" cx="705" cy="-234" rx="27" ry="18"/>
<text text-anchor="middle" x="705" y="-229.8" font-family="Times,serif" font-size="14.00" fill="#000000">AZ</text>
</g>
<!-- JH (4)&#45;&#45;AZ -->
<g id="edge19" class="edge">
<title>JH (4)--AZ</title>
<path fill="none" stroke="#000000" d="M769.2072,-290.3771C754.982,-277.8867 735.1994,-260.5166 721.3646,-248.3689"/>
</g>
<!-- OB -->
<g id="node24" class="node">
<title>OB</title>
<ellipse fill="none" stroke="#000000" cx="667" cy="-162" rx="27" ry="18"/>
<text text-anchor="middle" x="667" y="-157.8" font-family="Times,serif" font-size="14.00" fill="#000000">OB</text>
</g>
<!-- NW&#45;&#45;OB -->
<g id="edge20" class="edge">
<title>NW--OB</title>
<path fill="none" stroke="#000000" d="M641.2305,-216.5708C646.5761,-205.2506 653.5148,-190.5568 658.8453,-179.2687"/>
</g>
<!-- JC -->
<g id="node49" class="node">
<title>JC</title>
<ellipse fill="none" stroke="#000000" cx="773" cy="-162" rx="27" ry="18"/>
<text text-anchor="middle" x="773" y="-157.8" font-family="Times,serif" font-size="14.00" fill="#000000">JC</text>
</g>
<!-- AZ&#45;&#45;JC -->
<g id="edge50" class="edge">
<title>AZ--JC</title>
<path fill="none" stroke="#000000" d="M719.4211,-218.7307C730.9609,-206.512 747.0654,-189.4602 758.5997,-177.2473"/>
</g>
<!-- OB&#45;&#45;UZ (5) -->
<g id="edge42" class="edge">
<title>OB--UZ (5)</title>
<path fill="none" stroke="#000000" d="M691.9416,-154.7C736.7703,-141.5794 830.9122,-114.0257 880.6393,-99.4714"/>
</g>
<!-- BZ -->
<g id="node25" class="node">
<title>BZ</title>
<ellipse fill="none" stroke="#000000" cx="1450" cy="-378" rx="27" ry="18"/>
<text text-anchor="middle" x="1450" y="-373.8" font-family="Times,serif" font-size="14.00" fill="#000000">BZ</text>
</g>
<!-- XG -->
<g id="node26" class="node">
<title>XG</title>
<ellipse fill="none" stroke="#000000" cx="1406" cy="-306" rx="27" ry="18"/>
<text text-anchor="middle" x="1406" y="-301.8" font-family="Times,serif" font-size="14.00" fill="#000000">XG</text>
</g>
<!-- BZ&#45;&#45;XG -->
<g id="edge21" class="edge">
<title>BZ--XG</title>
<path fill="none" stroke="#000000" d="M1439.7949,-361.3008C1432.7882,-349.8352 1423.5152,-334.6612 1416.4553,-323.1086"/>
</g>
<!-- XF (21) -->
<g id="node27" class="node">
<title>XF (21)</title>
<ellipse fill="none" stroke="#000000" cx="1493" cy="-306" rx="41.7542" ry="18"/>
<text text-anchor="middle" x="1493" y="-301.8" font-family="Times,serif" font-size="14.00" fill="#000000">XF (21)</text>
</g>
<!-- BZ&#45;&#45;XF (21) -->
<g id="edge22" class="edge">
<title>BZ--XF (21)</title>
<path fill="none" stroke="#000000" d="M1460.1904,-360.937C1466.9456,-349.626 1475.7831,-334.8282 1482.584,-323.4407"/>
</g>
<!-- PA (16) -->
<g id="node38" class="node">
<title>PA (16)</title>
<ellipse fill="none" stroke="#000000" cx="1412" cy="-234" rx="41.7542" ry="18"/>
<text text-anchor="middle" x="1412" y="-229.8" font-family="Times,serif" font-size="14.00" fill="#000000">PA (16)</text>
</g>
<!-- XG&#45;&#45;PA (16) -->
<g id="edge51" class="edge">
<title>XG--PA (16)</title>
<path fill="none" stroke="#000000" d="M1407.5141,-287.8314C1408.4167,-277 1409.5594,-263.2876 1410.4656,-252.4133"/>
</g>
<!-- VS -->
<g id="node28" class="node">
<title>VS</title>
<ellipse fill="none" stroke="#000000" cx="27" cy="-306" rx="27" ry="18"/>
<text text-anchor="middle" x="27" y="-301.8" font-family="Times,serif" font-size="14.00" fill="#000000">VS</text>
</g>
<!-- FF (13) -->
<g id="node29" class="node">
<title>FF (13)</title>
<ellipse fill="none" stroke="#000000" cx="195" cy="-234" rx="40.049" ry="18"/>
<text text-anchor="middle" x="195" y="-229.8" font-family="Times,serif" font-size="14.00" fill="#000000">FF (13)</text>
</g>
<!-- VS&#45;&#45;FF (13) -->
<g id="edge23" class="edge">
<title>VS--FF (13)</title>
<path fill="none" stroke="#000000" d="M50.0074,-296.1397C80.1123,-283.2376 132.8941,-260.6168 165.7899,-246.5186"/>
</g>
<!-- GC -->
<g id="node30" class="node">
<title>GC</title>
<ellipse fill="none" stroke="#000000" cx="448" cy="-18" rx="27" ry="18"/>
<text text-anchor="middle" x="448" y="-13.8" font-family="Times,serif" font-size="14.00" fill="#000000">GC</text>
</g>
<!-- VS&#45;&#45;GC -->
<g id="edge24" class="edge">
<title>VS--GC</title>
<path fill="none" stroke="#000000" d="M35.5849,-288.7062C52.514,-256.1975 93.1886,-185.5189 146,-144 234.4297,-74.4789 366.7278,-37.1243 422.1362,-23.7666"/>
</g>
<!-- OI (20) -->
<g id="node31" class="node">
<title>OI (20)</title>
<ellipse fill="none" stroke="#000000" cx="525" cy="-378" rx="39.9481" ry="18"/>
<text text-anchor="middle" x="525" y="-373.8" font-family="Times,serif" font-size="14.00" fill="#000000">OI (20)</text>
</g>
<!-- SY -->
<g id="node32" class="node">
<title>SY</title>
<ellipse fill="none" stroke="#000000" cx="525" cy="-306" rx="27" ry="18"/>
<text text-anchor="middle" x="525" y="-301.8" font-family="Times,serif" font-size="14.00" fill="#000000">SY</text>
</g>
<!-- OI (20)&#45;&#45;SY -->
<g id="edge25" class="edge">
<title>OI (20)--SY</title>
<path fill="none" stroke="#000000" d="M525,-359.8314C525,-349 525,-335.2876 525,-324.4133"/>
</g>
<!-- ZL (11) -->
<g id="node42" class="node">
<title>ZL (11)</title>
<ellipse fill="none" stroke="#000000" cx="295" cy="-234" rx="41.1729" ry="18"/>
<text text-anchor="middle" x="295" y="-229.8" font-family="Times,serif" font-size="14.00" fill="#000000">ZL (11)</text>
</g>
<!-- SY&#45;&#45;ZL (11) -->
<g id="edge34" class="edge">
<title>SY--ZL (11)</title>
<path fill="none" stroke="#000000" d="M503.9851,-294.6477C499.1421,-292.27 493.9559,-289.9083 489,-288 435.82,-267.5224 371.7117,-251.2295 332.1514,-242.0943"/>
</g>
<!-- RO -->
<g id="node33" class="node">
<title>RO</title>
<ellipse fill="none" stroke="#000000" cx="1118" cy="-306" rx="27" ry="18"/>
<text text-anchor="middle" x="1118" y="-301.8" font-family="Times,serif" font-size="14.00" fill="#000000">RO</text>
</g>
<!-- RO&#45;&#45;UZ (5) -->
<g id="edge27" class="edge">
<title>RO--UZ (5)</title>
<path fill="none" stroke="#000000" d="M1135.3945,-291.9632C1146.1812,-282.0815 1159.0756,-267.8307 1165,-252 1181.8238,-207.0449 1195.1765,-181.328 1165,-144 1138.4181,-111.1185 1013.7311,-97.3554 950.286,-92.4035"/>
</g>
<!-- YL (8) -->
<g id="node35" class="node">
<title>YL (8)</title>
<ellipse fill="none" stroke="#000000" cx="1118" cy="-234" rx="37.6593" ry="18"/>
<text text-anchor="middle" x="1118" y="-229.8" font-family="Times,serif" font-size="14.00" fill="#000000">YL (8)</text>
</g>
<!-- RO&#45;&#45;YL (8) -->
<g id="edge28" class="edge">
<title>RO--YL (8)</title>
<path fill="none" stroke="#000000" d="M1118,-287.8314C1118,-277 1118,-263.2876 1118,-252.4133"/>
</g>
<!-- UZ (5)&#45;&#45;GC -->
<g id="edge60" class="edge">
<title>UZ (5)--GC</title>
<path fill="none" stroke="#000000" d="M876.8992,-84.4102C786.7434,-70.4506 553.3222,-34.3079 474.4707,-22.0987"/>
</g>
<!-- YL (8)&#45;&#45;JC -->
<g id="edge56" class="edge">
<title>YL (8)--JC</title>
<path fill="none" stroke="#000000" d="M1083.2677,-226.6129C1067.8709,-223.3465 1049.5346,-219.4678 1033,-216 947.271,-198.0203 845.577,-176.9837 798.8392,-167.3318"/>
</g>
<!-- YL (8)&#45;&#45;FM -->
<g id="edge57" class="edge">
<title>YL (8)--FM</title>
<path fill="none" stroke="#000000" d="M1092.9837,-220.4574C1067.851,-206.8517 1029.5559,-186.1205 1005.9665,-173.3503"/>
</g>
<!-- LQ -->
<g id="node36" class="node">
<title>LQ</title>
<ellipse fill="none" stroke="#000000" cx="1334" cy="-306" rx="27" ry="18"/>
<text text-anchor="middle" x="1334" y="-301.8" font-family="Times,serif" font-size="14.00" fill="#000000">LQ</text>
</g>
<!-- IZ (9) -->
<g id="node37" class="node">
<title>IZ (9)</title>
<ellipse fill="none" stroke="#000000" cx="1246" cy="-234" rx="33.647" ry="18"/>
<text text-anchor="middle" x="1246" y="-229.8" font-family="Times,serif" font-size="14.00" fill="#000000">IZ (9)</text>
</g>
<!-- LQ&#45;&#45;IZ (9) -->
<g id="edge29" class="edge">
<title>LQ--IZ (9)</title>
<path fill="none" stroke="#000000" d="M1316.614,-291.7751C1301.5871,-279.4804 1279.9265,-261.758 1264.5651,-249.1896"/>
</g>
<!-- LQ&#45;&#45;PA (16) -->
<g id="edge30" class="edge">
<title>LQ--PA (16)</title>
<path fill="none" stroke="#000000" d="M1350.1617,-291.0816C1363.0129,-279.2189 1380.9725,-262.6407 1394.2274,-250.4055"/>
</g>
<!-- IZ (9)&#45;&#45;FH -->
<g id="edge39" class="edge">
<title>IZ (9)--FH</title>
<path fill="none" stroke="#000000" d="M1223.7178,-220.2879C1202.1034,-206.9867 1169.614,-186.9932 1148.8609,-174.2221"/>
</g>
<!-- IZ (9)&#45;&#45;VH -->
<g id="edge40" class="edge">
<title>IZ (9)--VH</title>
<path fill="none" stroke="#000000" d="M1216.5413,-224.8099C1185.4255,-214.824 1135.134,-197.887 1093,-180 1088.2402,-177.9794 1083.2242,-175.6229 1078.4977,-173.2935"/>
</g>
<!-- JZ -->
<g id="node44" class="node">
<title>JZ</title>
<ellipse fill="none" stroke="#000000" cx="1285" cy="-162" rx="27" ry="18"/>
<text text-anchor="middle" x="1285" y="-157.8" font-family="Times,serif" font-size="14.00" fill="#000000">JZ</text>
</g>
<!-- IZ (9)&#45;&#45;JZ -->
<g id="edge41" class="edge">
<title>IZ (9)--JZ</title>
<path fill="none" stroke="#000000" d="M1255.4408,-216.5708C1261.5726,-205.2506 1269.5317,-190.5568 1275.6461,-179.2687"/>
</g>
<!-- GG (18) -->
<g id="node39" class="node">
<title>GG (18)</title>
<ellipse fill="none" stroke="#000000" cx="110" cy="-378" rx="43.46" ry="18"/>
<text text-anchor="middle" x="110" y="-373.8" font-family="Times,serif" font-size="14.00" fill="#000000">GG (18)</text>
</g>
<!-- GH -->
<g id="node40" class="node">
<title>GH</title>
<ellipse fill="none" stroke="#000000" cx="137" cy="-306" rx="27" ry="18"/>
<text text-anchor="middle" x="137" y="-301.8" font-family="Times,serif" font-size="14.00" fill="#000000">GH</text>
</g>
<!-- GG (18)&#45;&#45;GH -->
<g id="edge31" class="edge">
<title>GG (18)--GH</title>
<path fill="none" stroke="#000000" d="M116.6742,-360.2022C120.8593,-349.0419 126.2321,-334.7143 130.4026,-323.593"/>
</g>
<!-- VI -->
<g id="node41" class="node">
<title>VI</title>
<ellipse fill="none" stroke="#000000" cx="182" cy="-162" rx="27" ry="18"/>
<text text-anchor="middle" x="182" y="-157.8" font-family="Times,serif" font-size="14.00" fill="#000000">VI</text>
</g>
<!-- GG (18)&#45;&#45;VI -->
<g id="edge32" class="edge">
<title>GG (18)--VI</title>
<path fill="none" stroke="#000000" d="M104.3223,-360.0567C99.3869,-341.6337 94.0303,-312.302 101,-288 113.7611,-243.5045 147.9365,-199.9697 167.5775,-177.5713"/>
</g>
<!-- GH&#45;&#45;FF (13) -->
<g id="edge66" class="edge">
<title>GH--FF (13)</title>
<path fill="none" stroke="#000000" d="M149.8721,-290.0209C159.2167,-278.4207 171.8371,-262.7539 181.3558,-250.9377"/>
</g>
<!-- ZL (11)&#45;&#45;VI -->
<g id="edge45" class="edge">
<title>ZL (11)--VI</title>
<path fill="none" stroke="#000000" d="M271.5863,-219.0816C250.8998,-205.9008 221.0768,-186.8985 201.6186,-174.5003"/>
</g>
<!-- OF -->
<g id="node43" class="node">
<title>OF</title>
<ellipse fill="none" stroke="#000000" cx="1190" cy="-306" rx="27" ry="18"/>
<text text-anchor="middle" x="1190" y="-301.8" font-family="Times,serif" font-size="14.00" fill="#000000">OF</text>
</g>
<!-- OF&#45;&#45;YL (8) -->
<g id="edge37" class="edge">
<title>OF--YL (8)</title>
<path fill="none" stroke="#000000" d="M1174.7307,-290.7307C1162.8422,-278.8422 1146.3784,-262.3784 1134.248,-250.248"/>
</g>
<!-- OF&#45;&#45;IZ (9) -->
<g id="edge38" class="edge">
<title>OF--IZ (9)</title>
<path fill="none" stroke="#000000" d="M1202.7073,-289.6621C1211.7429,-278.0448 1223.8435,-262.4869 1232.9544,-250.7729"/>
</g>
<!-- AH -->
<g id="node45" class="node">
<title>AH</title>
<ellipse fill="none" stroke="#000000" cx="281" cy="-306" rx="27" ry="18"/>
<text text-anchor="middle" x="281" y="-301.8" font-family="Times,serif" font-size="14.00" fill="#000000">AH</text>
</g>
<!-- AH&#45;&#45;FF (13) -->
<g id="edge43" class="edge">
<title>AH--FF (13)</title>
<path fill="none" stroke="#000000" d="M264.0092,-291.7751C249.6175,-279.7263 228.9996,-262.4648 214.0512,-249.9498"/>
</g>
<!-- AH&#45;&#45;ZL (11) -->
<g id="edge44" class="edge">
<title>AH--ZL (11)</title>
<path fill="none" stroke="#000000" d="M284.5328,-287.8314C286.6389,-277 289.3052,-263.2876 291.4196,-252.4133"/>
</g>
<!-- BF -->
<g id="node46" class="node">
<title>BF</title>
<ellipse fill="none" stroke="#000000" cx="1262" cy="-306" rx="27" ry="18"/>
<text text-anchor="middle" x="1262" y="-301.8" font-family="Times,serif" font-size="14.00" fill="#000000">BF</text>
</g>
<!-- BF&#45;&#45;YL (8) -->
<g id="edge47" class="edge">
<title>BF--YL (8)</title>
<path fill="none" stroke="#000000" d="M1240.1295,-295.0647C1214.4015,-282.2008 1171.7202,-260.8601 1144.2352,-247.1176"/>
</g>
<!-- BF&#45;&#45;PA (16) -->
<g id="edge46" class="edge">
<title>BF--PA (16)</title>
<path fill="none" stroke="#000000" d="M1283.6651,-295.0742C1288.3812,-292.722 1293.3507,-290.2632 1298,-288 1326.9455,-273.9101 1360.2378,-258.1963 1383.3408,-247.3694"/>
</g>
<!-- OH -->
<g id="node47" class="node">
<title>OH</title>
<ellipse fill="none" stroke="#000000" cx="1325" cy="-234" rx="27" ry="18"/>
<text text-anchor="middle" x="1325" y="-229.8" font-family="Times,serif" font-size="14.00" fill="#000000">OH</text>
</g>
<!-- OH&#45;&#45;JZ -->
<g id="edge49" class="edge">
<title>OH--JZ</title>
<path fill="none" stroke="#000000" d="M1315.5206,-216.937C1309.1442,-205.4596 1300.7735,-190.3922 1294.4114,-178.9405"/>
</g>
<!-- CU (22) -->
<g id="node48" class="node">
<title>CU (22)</title>
<ellipse fill="none" stroke="#000000" cx="1580" cy="-162" rx="42.8978" ry="18"/>
<text text-anchor="middle" x="1580" y="-157.8" font-family="Times,serif" font-size="14.00" fill="#000000">CU (22)</text>
</g>
<!-- OH&#45;&#45;CU (22) -->
<g id="edge48" class="edge">
<title>OH--CU (22)</title>
<path fill="none" stroke="#000000" d="M1345.9736,-222.5382C1350.8187,-220.1662 1356.0162,-217.8345 1361,-216 1421.8197,-193.6128 1495.5307,-177.6027 1540.0459,-169.0808"/>
</g>
<!-- PZ&#45;&#45;CU (22) -->
<g id="edge67" class="edge">
<title>PZ--CU (22)</title>
<path fill="none" stroke="#000000" d="M1580,-215.8314C1580,-205 1580,-191.2876 1580,-180.4133"/>
</g>
<!-- GO -->
<g id="node52" class="node">
<title>GO</title>
<ellipse fill="none" stroke="#000000" cx="707" cy="-306" rx="27" ry="18"/>
<text text-anchor="middle" x="707" y="-301.8" font-family="Times,serif" font-size="14.00" fill="#000000">GO</text>
</g>
<!-- GO&#45;&#45;VJ -->
<g id="edge54" class="edge">
<title>GO--VJ</title>
<path fill="none" stroke="#000000" d="M721.8452,-290.7307C733.7244,-278.512 750.3026,-261.4602 762.1762,-249.2473"/>
</g>
<!-- GO&#45;&#45;TR (7) -->
<g id="edge55" class="edge">
<title>GO--TR (7)</title>
<path fill="none" stroke="#000000" d="M684.649,-295.6842C656.5099,-282.6969 608.2089,-260.4041 578.0256,-246.4734"/>
</g>
<!-- TY -->
<g id="node53" class="node">
<title>TY</title>
<ellipse fill="none" stroke="#000000" cx="288" cy="-378" rx="27" ry="18"/>
<text text-anchor="middle" x="288" y="-373.8" font-family="Times,serif" font-size="14.00" fill="#000000">TY</text>
</g>
<!-- TY&#45;&#45;SZ (10) -->
<g id="edge58" class="edge">
<title>TY--SZ (10)</title>
<path fill="none" stroke="#000000" d="M303.9868,-363.4297C317.0618,-351.5133 335.5409,-334.6716 349.1076,-322.307"/>
</g>
<!-- TS -->
<g id="node54" class="node">
<title>TS</title>
<ellipse fill="none" stroke="#000000" cx="209" cy="-306" rx="27" ry="18"/>
<text text-anchor="middle" x="209" y="-301.8" font-family="Times,serif" font-size="14.00" fill="#000000">TS</text>
</g>
<!-- TY&#45;&#45;TS -->
<g id="edge59" class="edge">
<title>TY--TS</title>
<path fill="none" stroke="#000000" d="M272.0132,-363.4297C258.307,-350.938 238.6623,-333.034 224.9631,-320.5486"/>
</g>
<!-- TS&#45;&#45;FF (13) -->
<g id="edge63" class="edge">
<title>TS--FF (13)</title>
<path fill="none" stroke="#000000" d="M205.4672,-287.8314C203.3611,-277 200.6948,-263.2876 198.5804,-252.4133"/>
</g>
<!-- RY -->
<g id="node55" class="node">
<title>RY</title>
<ellipse fill="none" stroke="#000000" cx="453" cy="-306" rx="27" ry="18"/>
<text text-anchor="middle" x="453" y="-301.8" font-family="Times,serif" font-size="14.00" fill="#000000">RY</text>
</g>
<!-- RY&#45;&#45;TR (7) -->
<g id="edge61" class="edge">
<title>RY--TR (7)</title>
<path fill="none" stroke="#000000" d="M471.4331,-292.4574C488.1777,-280.1552 512.8514,-262.0275 530.2748,-249.2267"/>
</g>
<!-- RY&#45;&#45;FF (13) -->
<g id="edge62" class="edge">
<title>RY--FF (13)</title>
<path fill="none" stroke="#000000" d="M432.0734,-294.4068C427.2259,-292.0416 422.0155,-289.7459 417,-288 343.2403,-262.3239 320.1463,-273.2787 245,-252 238.6974,-250.2153 232.0448,-248.036 225.7211,-245.8183"/>
</g>
<!-- TH&#45;&#45;CU (22) -->
<g id="edge65" class="edge">
<title>TH--CU (22)</title>
<path fill="none" stroke="#000000" d="M1730.0269,-224.439C1699.328,-211.6625 1644.8373,-188.9843 1610.6596,-174.7601"/>
</g>
</g>
</svg>